<svg width="187" height="187" viewBox="0 0 187 187" fill="none" xmlns="http://www.w3.org/2000/svg">
<rect x="0.973696" y="1.107" width="184.738" height="184.738" rx="3.90291" fill="#C2CFE0"/>
<g clip-path="url(#clip0_1_322)">
<path d="M84.3531 82.3366C84.3531 84.0402 83.6763 85.6741 82.4717 86.8787C81.267 88.0834 79.6332 88.7601 77.9295 88.7601C76.2259 88.7601 74.592 88.0834 73.3874 86.8787C72.1827 85.6741 71.506 84.0402 71.506 82.3366C71.506 80.633 72.1827 78.9991 73.3874 77.7945C74.592 76.5898 76.2259 75.9131 77.9295 75.9131C79.6332 75.9131 81.267 76.5898 82.4717 77.7945C83.6763 78.9991 84.3531 80.633 84.3531 82.3366Z" fill="#707683"/>
<path d="M65.0741 67.3481C63.3704 67.3481 61.7366 68.0249 60.5319 69.2295C59.3273 70.4342 58.6505 72.068 58.6505 73.7717V112.313C58.6505 114.017 59.3273 115.65 60.5319 116.855C61.7366 118.06 63.3704 118.736 65.0741 118.736H120.745C122.448 118.736 124.082 118.06 125.287 116.855C126.492 115.65 127.168 114.017 127.168 112.313V73.7717C127.168 72.068 126.492 70.4342 125.287 69.2295C124.082 68.0249 122.448 67.3481 120.745 67.3481H65.0741ZM120.745 71.6305C121.313 71.6305 121.857 71.8561 122.259 72.2576C122.66 72.6592 122.886 73.2038 122.886 73.7717V99.4658L106.72 91.1281C106.318 90.9269 105.864 90.8571 105.42 90.9286C104.977 91.0001 104.567 91.2092 104.249 91.5263L88.3615 107.414L76.9705 99.8256C76.5592 99.5517 76.0659 99.4286 75.5741 99.477C75.0824 99.5254 74.6226 99.7423 74.2726 100.091L62.9414 110.172V112.484C62.9363 112.427 62.9335 112.37 62.9329 112.313V73.7717C62.9329 73.2038 63.1585 72.6592 63.56 72.2576C63.9616 71.8561 64.5062 71.6305 65.0741 71.6305H120.745Z" fill="#707683"/>
</g>
<rect x="0.973696" y="1.107" width="184.738" height="184.738" rx="3.90291" stroke="#C2CFE0" stroke-width="0.867314"/>
<defs>
<clipPath id="clip0_1_322">
<rect width="68.5178" height="68.5178" fill="white" transform="translate(58.6505 58.7832)"/>
</clipPath>
</defs>
</svg>
