<svg width="14" height="14" viewBox="0 0 14 14" fill="none" xmlns="http://www.w3.org/2000/svg">
<path d="M9.98268 2.60522L11.3947 4.01655L9.98268 2.60522ZM10.8907 1.36188L7.07268 5.17988C6.8754 5.37688 6.74086 5.62787 6.68601 5.90122L6.33334 7.66655L8.09868 7.31322C8.37201 7.25855 8.62268 7.12455 8.82001 6.92722L12.638 3.10922C12.7527 2.99449 12.8438 2.85828 12.9058 2.70838C12.9679 2.55847 12.9999 2.39781 12.9999 2.23555C12.9999 2.0733 12.9679 1.91263 12.9058 1.76273C12.8438 1.61282 12.7527 1.47662 12.638 1.36188C12.5233 1.24715 12.3871 1.15614 12.2372 1.09405C12.0873 1.03196 11.9266 1 11.7643 1C11.6021 1 11.4414 1.03196 11.2915 1.09405C11.1416 1.15614 11.0054 1.24715 10.8907 1.36188V1.36188Z" stroke="#323C47" stroke-width="2" stroke-linecap="round" stroke-linejoin="round"/>
<path d="M11.6667 9V11C11.6667 11.3536 11.5262 11.6928 11.2761 11.9428C11.0261 12.1929 10.687 12.3333 10.3333 12.3333H3C2.64638 12.3333 2.30724 12.1929 2.05719 11.9428C1.80714 11.6928 1.66666 11.3536 1.66666 11V3.66667C1.66666 3.31304 1.80714 2.9739 2.05719 2.72386C2.30724 2.47381 2.64638 2.33333 3 2.33333H5" stroke="#323C47" stroke-width="2" stroke-linecap="round" stroke-linejoin="round"/>
</svg>
