<svg width="12" height="16" viewBox="0 0 12 16" fill="none" xmlns="http://www.w3.org/2000/svg">
<path d="M5.85167 12.7823V10.8722C6.4287 10.8722 6.96345 10.7403 7.45591 10.4767C7.94838 10.213 8.3513 9.86732 8.66469 9.43952C8.97808 9.01172 9.22431 8.53916 9.40339 8.02182C9.58247 7.50448 9.67201 6.98714 9.67201 6.4698C9.67201 5.57441 9.33126 4.81084 8.64977 4.17909C7.96828 3.54734 7.14004 3.23147 6.16505 3.23147C5.44874 3.23147 4.74237 3.41055 4.04596 3.7687C3.34954 4.12686 2.81728 4.5845 2.44918 5.14164L1.1807 2.85839C1.78758 2.11223 2.5611 1.51032 3.50126 1.05268C4.44142 0.595033 5.38407 0.366211 6.32921 0.366211C7.28429 0.366211 8.16476 0.600008 8.97062 1.0676C9.77647 1.5352 10.4132 2.17192 10.8808 2.97777C11.3484 3.78363 11.5822 4.6641 11.5822 5.61918C11.5822 6.43498 11.418 7.27566 11.0897 8.1412C10.7614 9.00675 10.3361 9.77778 9.81378 10.4543C9.29147 11.1308 8.67713 11.688 7.97076 12.1257C7.2644 12.5634 6.55803 12.7823 5.85167 12.7823ZM4.89658 11.7825V12.7226C4.03104 12.6231 3.28487 12.3844 2.6581 12.0063C2.03133 11.6283 1.53637 11.1234 1.17324 10.4916C0.81011 9.85986 0.543979 9.14603 0.374849 8.35013C0.20572 7.55422 0.121155 6.64391 0.121155 5.61918C0.121155 5.36051 0.155976 5.07697 0.225617 4.76856L2.03133 6.57427C2.04127 7.48956 2.14076 8.30785 2.32979 9.02913C2.51882 9.75042 2.8322 10.3648 3.26995 10.8722C3.7077 11.3795 4.24991 11.683 4.89658 11.7825ZM9.61232 12.7823C9.99037 12.7823 10.2739 12.9216 10.4629 13.2002C10.652 13.4787 10.6893 13.817 10.5749 14.2149C10.4605 14.6129 10.2267 14.9512 9.87347 15.2297C9.52029 15.5083 9.15467 15.6476 8.77662 15.6476C8.39856 15.6476 8.11502 15.5083 7.92599 15.2297C7.73697 14.9512 7.69966 14.6129 7.81407 14.2149C7.92848 13.817 8.16228 13.4787 8.51546 13.2002C8.86864 12.9216 9.23426 12.7823 9.61232 12.7823Z" fill="white"/>
</svg>
