<svg width="26" height="34" viewBox="0 0 26 34" fill="none" xmlns="http://www.w3.org/2000/svg">
<path d="M3.07482 1.04633e-06C1.47989 -0.00140781 0.0344527 1.42013 0.000608181 3.02482C-0.0332364 4.62529 1.35016 6.06796 2.97893 6.13136C4.65846 6.19757 6.10531 4.81689 6.13775 3.11781C6.16877 1.44549 4.75153 0.00281877 3.07482 1.04633e-06ZM0.960947 21.0005V18.9999C0.934153 19.6663 0.960947 20.3341 0.960947 21.0005Z" fill="#60D1D0"/>
<path d="M22.6315 29.3508C17.4744 35.9781 7.25047 35.4286 2.814 28.2871C1.47149 26.1273 0.953958 24.0957 0.961008 21.0005V11.4836C0.961008 10.2171 1.98762 9.19141 3.25398 9.19141C4.52033 9.19141 5.54837 10.2171 5.54837 11.4836V21.0005H5.4694C5.47504 21.5513 5.49055 22.1022 5.53849 22.6502C5.87694 26.5218 9.32345 29.579 13.1789 29.4917C17.1811 29.4001 20.5119 26.2076 20.6812 22.2994C20.8518 18.3603 17.9256 14.8564 14.0166 14.4155C12.7404 14.2718 13.3129 14.3267 12.0254 14.3013C10.4911 14.2718 9.5223 13.4138 9.51948 12.0641C9.51666 10.7496 10.5433 9.80285 12.0197 9.79581C14.3804 9.78595 14.8669 9.69437 17.1514 10.5467C24.9583 13.4631 27.7025 22.8348 22.6315 29.3508Z" fill="white"/>
</svg>
