<svg width="12" height="12" viewBox="0 0 12 12" fill="none" xmlns="http://www.w3.org/2000/svg">
<path d="M6.17289 0.180664C3.01309 0.180664 0.442383 2.75137 0.442383 5.91117V8.28532C0.442383 8.87212 0.956409 9.34947 1.58848 9.34947H2.16153C2.31352 9.34947 2.45927 9.2891 2.56674 9.18163C2.67421 9.07416 2.73458 8.9284 2.73458 8.77642V5.82922C2.73458 5.67724 2.67421 5.53148 2.56674 5.42401C2.45927 5.31655 2.31352 5.25617 2.16153 5.25617H1.6412C1.95982 3.03847 3.86808 1.32676 6.17289 1.32676C8.4777 1.32676 10.386 3.03847 10.7046 5.25617H10.1842C10.0323 5.25617 9.8865 5.31655 9.77903 5.42401C9.67156 5.53148 9.61119 5.67724 9.61119 5.82922V9.34947C9.61119 9.98154 9.09716 10.4956 8.46509 10.4956H7.31899V9.92252H5.02679V11.6417H8.46509C9.72924 11.6417 10.7573 10.6136 10.7573 9.34947C11.3894 9.34947 11.9034 8.87212 11.9034 8.28532V5.91117C11.9034 2.75137 9.33269 0.180664 6.17289 0.180664Z" fill="white"/>
</svg>
